<svg width="453" height="511" viewBox="0 0 453 511" fill="none" xmlns="http://www.w3.org/2000/svg">
<path d="M0 226.5C0 121.892 0 69.5872 31.4361 36.2426C32.9907 34.5936 34.5936 32.9907 36.2426 31.4361C69.5872 0 121.892 0 226.5 0C331.108 0 383.413 0 416.757 31.4361C418.406 32.9907 420.009 34.5936 421.564 36.2426C453 69.5872 453 121.892 453 226.5C453 331.108 453 383.413 421.564 416.757C420.009 418.406 418.406 420.009 416.757 421.564C383.413 453 331.108 453 226.5 453C121.892 453 69.5872 453 36.2426 421.564C34.5936 420.009 32.9907 418.406 31.4361 416.757C0 383.413 0 331.108 0 226.5Z" fill="url(#paint0_linear_3_8)"/>
<path d="M392.369 398.178C394.035 398.178 395.625 398.871 396.76 400.089L416.757 421.564L335.576 504.968C332.8 507.819 328.069 507.229 326.08 503.783L270.305 407.178C267.996 403.178 270.882 398.178 275.501 398.178H392.369Z" fill="url(#paint1_linear_3_8)"/>
<rect x="117" y="162" width="156" height="27.3896" rx="13.6948" fill="white"/>
<rect x="120" y="203.805" width="217" height="27.3896" rx="13.6948" fill="white"/>
<rect x="120" y="245.61" width="217" height="27.3896" rx="13.6948" fill="white"/>
<defs>
<linearGradient id="paint0_linear_3_8" x1="36.5" y1="70" x2="435.427" y2="422.076" gradientUnits="userSpaceOnUse">
<stop stop-color="#FF001F"/>
<stop offset="0.997098" stop-color="#FF1741"/>
</linearGradient>
<linearGradient id="paint1_linear_3_8" x1="36.5" y1="70" x2="435.427" y2="422.076" gradientUnits="userSpaceOnUse">
<stop stop-color="#FF001F"/>
<stop offset="0.997098" stop-color="#FF1741"/>
</linearGradient>
</defs>
</svg>
